<svg xmlns="http://www.w3.org/2000/svg" width="20" height="20" viewBox="0 0 20 20"><defs><style>.a{fill:#fff;}</style></defs><path class="a" d="M10,5.938a4.1,4.1,0,1,0,4.1,4.1A4.106,4.106,0,0,0,10,5.938Zm0,0a4.1,4.1,0,1,0,4.1,4.1A4.106,4.106,0,0,0,10,5.938ZM17.07,0H2.93A2.931,2.931,0,0,0,0,2.93V17.07A2.931,2.931,0,0,0,2.93,20H17.07A2.931,2.931,0,0,0,20,17.07V2.93A2.931,2.931,0,0,0,17.07,0ZM10,15.313a5.273,5.273,0,1,1,5.273-5.273A5.281,5.281,0,0,1,10,15.313ZM16.445,4.766a1.172,1.172,0,1,1,1.172-1.172A1.175,1.175,0,0,1,16.445,4.766ZM10,5.938a4.1,4.1,0,1,0,4.1,4.1A4.106,4.106,0,0,0,10,5.938Zm0,0a4.1,4.1,0,1,0,4.1,4.1A4.106,4.106,0,0,0,10,5.938Zm0,0a4.1,4.1,0,1,0,4.1,4.1A4.106,4.106,0,0,0,10,5.938Z"/></svg>