<svg xmlns="http://www.w3.org/2000/svg" width="39.994" height="29.995" viewBox="0 0 39.994 29.995"><defs><style>.a{fill:#fff;}</style></defs><g transform="translate(39.994 -64) rotate(90)"><g transform="translate(64)"><g transform="translate(0)"><path class="a" d="M93.751,8.576,85.416.244A.833.833,0,0,0,84.827,0H67.333A3.336,3.336,0,0,0,64,3.333V36.661a3.336,3.336,0,0,0,3.333,3.333h23.33A3.336,3.336,0,0,0,94,36.661V9.165A.833.833,0,0,0,93.751,8.576ZM92.329,36.661a1.669,1.669,0,0,1-1.666,1.666H67.333a1.669,1.669,0,0,1-1.666-1.666V3.333a1.669,1.669,0,0,1,1.666-1.666H84.482L92.329,9.51Z" transform="translate(-64)"/><path class="a" d="M128,194.5v15a2.5,2.5,0,0,0,2.5,2.5h15a2.5,2.5,0,0,0,2.5-2.5v-15a2.5,2.5,0,0,0-2.5-2.5h-15A2.5,2.5,0,0,0,128,194.5Zm5.832,15.831H130.5a.834.834,0,0,1-.833-.833v-3.333h4.166v4.166Zm6.666,0h-5v-4.166h5Zm5.832-.833a.834.834,0,0,1-.833.833h-3.333v-5a.833.833,0,0,0-.833-.833H129.666v-5h16.664v10Zm-4.166-15.831H145.5a.834.834,0,0,1,.833.833v3.333h-4.166v-4.166Zm-6.666,0h5v4.166h-5Zm-1.666,4.166h-4.166V194.5a.834.834,0,0,1,.833-.833h3.333v4.166Z" transform="translate(-123.001 -177.002)"/></g></g></g></svg>